<svg width="14" height="14" viewBox="0 0 14 14" fill="none" xmlns="http://www.w3.org/2000/svg">
<path d="M11.5578 0.257775C11.3609 0.0608863 11.0411 0.0627676 10.8465 0.261958L7.00004 4.20004L3.15354 0.261959C2.95898 0.0627681 2.63919 0.0608865 2.4423 0.257775L0.257775 2.4423C0.0608863 2.63919 0.0627675 2.95898 0.261958 3.15354L4.20004 7.00004L0.261959 10.8465C0.062768 11.0411 0.0608864 11.3609 0.257775 11.5578L2.4423 13.7423C2.63919 13.9392 2.95898 13.9373 3.15354 13.7381L7.00004 9.80004L10.8465 13.7381C11.0411 13.9373 11.3609 13.9392 11.5578 13.7423L13.7423 11.5578C13.9392 11.3609 13.9373 11.0411 13.7381 10.8465L9.80004 7.00004L13.7381 3.15354C13.9373 2.95898 13.9392 2.63919 13.7423 2.4423L11.5578 0.257775Z" fill="#475569"/>
</svg>
