<svg width="14" height="16" viewBox="0 0 14 16" fill="none" xmlns="http://www.w3.org/2000/svg">
<path d="M11 6C12.654 6 14 4.654 14 3C14 1.346 12.654 0 11 0C9.346 0 8 1.346 8 3C8 3.224 8.029 3.44 8.075 3.65L4.856 5.661C4.344 5.254 3.704 5 3 5C1.346 5 0 6.346 0 8C0 9.654 1.346 11 3 11C3.704 11 4.344 10.746 4.856 10.339L8.075 12.351C8.029 12.56 8 12.776 8 13C8 14.654 9.346 16 11 16C12.654 16 14 14.654 14 13C14 11.346 12.654 10 11 10C10.296 10 9.657 10.254 9.144 10.661L5.925 8.649C5.971 8.44 6 8.223 6 8C6 7.776 5.971 7.56 5.925 7.351L9.145 5.339C9.657 5.746 10.296 6 11 6ZM11 2C11.551 2 12 2.448 12 3C12 3.552 11.551 4 11 4C10.449 4 10 3.552 10 3C10 2.448 10.449 2 11 2ZM3 9C2.449 9 2 8.552 2 8C2 7.448 2.449 7 3 7C3.551 7 4 7.448 4 8C4 8.552 3.551 9 3 9ZM11 12C11.551 12 12 12.448 12 13C12 13.552 11.551 14 11 14C10.449 14 10 13.552 10 13C10 12.448 10.449 12 11 12Z" fill="#475569"/>
</svg>
